<svg width="128" height="128" xmlns="http://www.w3.org/2000/svg" stroke="#30322f" xml:space="preserve" version="1.1"
     fill="#30322f">

 <g>
  <title>Layer 1</title>
     <g stroke-width="0" id="SVGRepo_bgCarrier"/>
     <g stroke-linejoin="round" stroke-linecap="round" id="SVGRepo_tracerCarrier"/>
     <g stroke="null" id="SVGRepo_iconCarrier">
   <g stroke="null" id="svg_1">
    <g stroke="null" id="svg_2">
     <path fill="#000000" stroke="null" id="svg_3"
           d="m108.01169,124.2825l-60.28996,0l0,-67.99175l24.05832,-29.502l19.80169,0l0,13.8675l-2.14738,0.87775c-1.00804,0.412 -1.55263,1.74775 -1.21662,2.98375c0.24039,0.8835 0.86572,1.473 1.57098,1.58925l-0.35457,0.14475c-1.00804,0.412 -1.55263,1.74775 -1.21662,2.98375c0.24039,0.8835 0.86572,1.473 1.57098,1.58925l-0.35457,0.14475c-1.00804,0.412 -1.55263,1.74775 -1.21662,2.98375c0.23896,0.87925 0.86001,1.4685 1.56119,1.58825l-4.1918,5.13975c-4.36571,5.35325 -4.36571,14.064 0,19.41725c0,0 0,0 0.0002,0c2.11496,2.59325 4.92703,4.0215 7.9179,4.0215c2.99129,0 5.80315,-1.428 7.9179,-4.0215c2.11537,-2.59325 3.27999,-6.04125 3.27999,-9.70875c0,-3.66775 -1.16483,-7.1155 -3.27979,-9.70875l-5.89571,-7.229l2.04849,-0.8375c1.00804,-0.412 1.55263,-1.74775 1.21662,-2.98375c-0.23998,-0.88275 -0.8647,-1.473 -1.56894,-1.58975l0.35232,-0.144c1.00804,-0.412 1.55263,-1.74775 1.21662,-2.98375c-0.23998,-0.88275 -0.8647,-1.473 -1.56894,-1.58975l0.35232,-0.144c1.00804,-0.412 1.55263,-1.74775 1.21662,-2.98375c-0.33622,-1.236 -1.4254,-1.904 -2.43344,-1.492l-0.93056,0.38025l0,-12.2945l7.05361,0c1.06268,0 1.92371,-1.056 1.92371,-2.35875l0,-14.782c0,-1.30275 -0.86103,-2.35875 -1.92371,-2.35875l-54.76105,0l0,-3.93125c0,-1.30275 -0.86103,-2.35875 -1.92371,-2.35875l-12.05506,0c-1.06268,0 -1.92371,1.056 -1.92371,2.35875l0,3.93125l-7.30929,0c-1.06268,0 -1.92371,1.056 -1.92371,2.35875l0,14.78125c0,1.30275 0.86103,2.35875 1.92371,2.35875l7.3101,0l0,97.49375l-8.83052,0c-1.06268,0 -1.92371,1.056 -1.92371,2.35875s0.86103,2.35875 1.92371,2.35875l85.02255,0c1.06268,0 1.92371,-1.056 1.92371,-2.35875s-0.86103,-2.35875 -1.9233,-2.35875zm-9.30864,-60.2665c1.38829,1.70225 2.15309,3.9655 2.15309,6.373c0,2.4075 -0.76459,4.6705 -2.15329,6.373c-1.38809,1.70225 -3.23392,2.64 -5.19759,2.64c-1.96327,0 -3.8095,-0.9375 -5.19779,-2.64l0.0002,0c-2.8661,-3.51425 -2.8661,-9.23175 0,-12.746l5.19759,-6.373l5.19779,6.373zm-50.98132,-52.00875l52.83734,0l0,10.064l-52.83734,0l0,-10.064zm0,14.7815l7.65529,0l-7.65529,9.388l0,-9.388zm0,16.06l13.09572,-16.06l5.52178,0l-18.61749,22.83l0,-6.77zm-15.90248,-20.7775l-5.38639,0l0,-10.064l5.38639,0l0,10.064zm12.05506,102.21125l-8.20763,0l0,-118.565l8.20763,0l0,118.565z"/>
    </g>
   </g>
  </g>
 </g>
</svg>